<?xml version="1.0" encoding="UTF-8"?>
<svg version="1.1" xmlns="http://www.w3.org/2000/svg" width="280" height="280">
<path d="M0 0 C1.44099013 0.37619945 2.87846209 0.7660809 4.3125 1.16796875 C5.39917969 1.45510742 5.39917969 1.45510742 6.5078125 1.74804688 C9.47326382 2.53865152 12.40067616 3.3848608 15.3125 4.35546875 C18.68014319 33.11686858 10.01301567 59.41179287 2.17578125 86.79833984 C-0.02767915 94.51031227 -2.08121083 102.25766605 -4.09796143 110.0201416 C-4.94780348 113.28192102 -5.81422546 116.5392042 -6.6796875 119.796875 C-7.00549805 121.02422363 -7.33130859 122.25157227 -7.66699219 123.51611328 C-10.66575218 134.79805099 -13.67459994 146.07729972 -16.6875 157.35546875 C-20.5 156.58935547 -20.5 156.58935547 -22.1875 154.484375 C-22.6825 153.63746094 -23.1775 152.79054687 -23.6875 151.91796875 C-24.29851562 150.90992188 -24.90953125 149.901875 -25.5390625 148.86328125 C-25.87969727 148.3002832 -26.22033203 147.73728516 -26.57128906 147.15722656 C-28.64498339 143.80992469 -30.86421832 140.55919696 -33.0625 137.29296875 C-38.20193678 129.62112798 -43.2664908 121.90143451 -48.3125 114.16796875 C-52.93284475 107.0883612 -57.55647178 100.01184159 -62.25 92.98046875 C-62.632771 92.40353271 -63.01554199 91.82659668 -63.40991211 91.23217773 C-65.26471355 88.4444856 -67.153949 85.68805554 -69.1015625 82.96484375 C-69.85179687 81.8975 -70.60203125 80.83015625 -71.375 79.73046875 C-72.03886719 78.81007813 -72.70273438 77.8896875 -73.38671875 76.94140625 C-74.6875 74.35546875 -74.6875 74.35546875 -74.6131897 72.06562805 C-73.33874471 68.33441127 -70.94355627 66.09253781 -68.17724609 63.40698242 C-67.31607178 62.54734138 -67.31607178 62.54734138 -66.4375 61.67033386 C-64.53782181 59.77853657 -62.62447758 57.90120361 -60.7109375 56.0234375 C-59.38297637 54.70548533 -58.05597389 53.38656658 -56.72988892 52.06672668 C-53.23287739 48.59065737 -49.72448439 45.12631179 -46.21313477 41.66473389 C-40.61167733 36.13846914 -35.02852193 30.59370217 -29.44362259 25.05071449 C-27.49982376 23.12447253 -25.55178494 21.20260864 -23.60287476 19.28153992 C-15.53249328 11.31493056 -15.53249328 11.31493056 -8.02749634 2.81806946 C-5.19983405 -0.26831276 -4.17299059 -0.72938925 0 0 Z " fill="#FBFBFB" transform="translate(252.6875,49.64453125)"/>
<path d="M0 0 C4.05539582 3.76675555 6.95044011 7.69348859 9.875 12.375 C10.8509219 13.90926183 11.8275203 15.4430935 12.8046875 16.9765625 C13.32256836 17.79286133 13.84044922 18.60916016 14.37402344 19.45019531 C17.21522035 23.90566987 20.10953269 28.32639505 23 32.75 C23.62600098 33.70938477 24.25200195 34.66876953 24.89697266 35.65722656 C29.6091613 42.87734541 34.3310754 50.09107642 39.0562439 57.30270386 C40.24730297 59.12088291 41.43778359 60.93943964 42.62817383 62.75805664 C46.43050251 68.56518006 50.23951909 74.3676611 54.06826782 80.15740967 C55.8484776 82.85022615 57.6253706 85.54522305 59.40197754 88.24041748 C60.25520772 89.53273996 61.11009339 90.82397105 61.9666748 92.11407471 C63.15245881 93.90020188 64.33266496 95.68989444 65.51171875 97.48046875 C66.18678467 98.50035889 66.86185059 99.52024902 67.55737305 100.57104492 C69 103 69 103 69 105 C62.36615034 104.41556049 56.22733153 103.19058298 49.80859375 101.4453125 C48.84091568 101.18771149 47.87323761 100.93011047 46.87623596 100.66470337 C43.72818997 99.82470424 40.58281263 98.97517149 37.4375 98.125 C35.25726489 97.5403043 33.0769252 96.95599842 30.89648438 96.37207031 C24.26141742 94.59206892 17.63043657 92.79715889 11 91 C8.93636551 90.44171392 6.87272631 89.88344521 4.80908203 89.32519531 C-0.79596591 87.80749736 -6.39844322 86.28052542 -12 84.75 C-12.8664212 84.5141217 -13.73284241 84.27824341 -14.6255188 84.03521729 C-17.04302559 83.37606305 -19.4592142 82.71230489 -21.875 82.046875 C-22.58925644 81.85267975 -23.30351288 81.6584845 -24.03941345 81.45840454 C-28.88506724 80.11493276 -28.88506724 80.11493276 -30 79 C-30.14520368 77.48935478 -30.22269764 75.97212183 -30.2722168 74.45532227 C-30.30441818 73.48663712 -30.33661957 72.51795197 -30.36979675 71.51991272 C-30.48059764 67.05073063 -30.56297693 62.58169722 -30.62475586 58.11157227 C-30.66630816 55.76119941 -30.72756945 53.41108556 -30.80932617 51.06176758 C-31.51410731 30.47779874 -31.51410731 30.47779874 -27.87890625 25.30541992 C-25.37762477 22.78868989 -22.97818734 20.90967738 -20 19 C-18.52505436 17.74848538 -17.06344248 16.48080457 -15.625 15.1875 C-14.985625 14.64351562 -14.34625 14.09953125 -13.6875 13.5390625 C-11.52280783 11.56478306 -9.80932265 9.29644798 -8 7 C-7.34 7 -6.68 7 -6 7 C-6 6.34 -6 5.68 -6 5 C-4.04072937 3.2856382 -2.04119788 1.61594832 0 0 Z " fill="#FAFAFA" transform="translate(138,163)"/>
<path d="M0 0 C10.12445451 1.12493939 10.12445451 1.12493939 13.92358398 2.19580078 C14.78078537 2.43363281 15.63798676 2.67146484 16.52116394 2.91650391 C17.8700042 3.30201416 17.8700042 3.30201416 19.24609375 3.6953125 C20.20747757 3.96375977 21.16886139 4.23220703 22.15937805 4.50878906 C25.25397636 5.37427579 28.34576702 6.24933834 31.4375 7.125 C35.66992153 8.31482531 39.90336826 9.5009849 44.13671875 10.6875 C45.1692276 10.97771027 46.20173645 11.26792053 47.26553345 11.56692505 C53.08756722 13.19974759 58.91683611 14.7932715 64.76953125 16.3125 C66.58529663 16.78598877 66.58529663 16.78598877 68.43774414 17.26904297 C70.58196026 17.8231538 72.72818686 18.36956581 74.87670898 18.90673828 C75.79911377 19.14634277 76.72151855 19.38594727 77.671875 19.6328125 C78.4462793 19.82762207 79.22068359 20.02243164 80.01855469 20.22314453 C82.26445315 21.10368284 83.43010494 22.19381017 85 24 C84.41992188 24.64066406 83.83984375 25.28132813 83.2421875 25.94140625 C82.46101563 26.80636719 81.67984375 27.67132813 80.875 28.5625 C80.05644531 29.46871094 79.23789063 30.37492187 78.39453125 31.30859375 C76.40288806 33.5471617 74.47231013 35.8171153 72.5625 38.125 C71.716875 39.07375 70.87125 40.0225 70 41 C69.34 41 68.68 41 68 41 C67.65001953 41.84304687 67.65001953 41.84304687 67.29296875 42.703125 C65.68062924 45.56734142 63.6806438 47.47252021 61.3125 49.75 C57.58863055 53.39372879 54.09521681 57.11404232 50.7109375 61.0703125 C48.32689376 63.75916548 45.77183972 66.25477545 43.1875 68.75 C41.28478684 70.7070764 39.49226996 72.70585307 37.703125 74.765625 C34.14977602 78.85632814 30.4719569 82.8129576 26.75 86.75 C22.10291967 91.68817261 17.46332143 96.63210999 12.875 101.625 C12.04742187 102.52476563 11.21984375 103.42453125 10.3671875 104.3515625 C9.10810108 105.76024334 7.85847732 107.18041763 6.69238281 108.66699219 C5.52095714 110.15988292 4.26508061 111.5855984 3 113 C2.01 113 1.02 113 0 113 C0 75.71 0 38.42 0 0 Z " fill="#FAFAFA" transform="translate(108,12)"/>
<path d="M0 0 C0.33 0 0.66 0 1 0 C1.82623742 5.01510248 2.13121962 9.85512059 2.08229065 14.94102478 C2.07906152 15.71063005 2.07583239 16.48023531 2.07250541 17.27316195 C2.06050207 19.83572474 2.04111486 22.39817661 2.02172852 24.96069336 C2.01157811 26.80406457 2.00188527 28.64743836 1.99261475 30.49081421 C1.96621006 35.48407758 1.93341516 40.47728085 1.89946485 45.47049785 C1.86504608 50.69284018 1.83651549 55.91521462 1.80735779 61.1375885 C1.75127758 71.02197983 1.68990914 80.90633095 1.62663645 90.79067856 C1.5548472 102.04574227 1.48895985 113.30083811 1.42356598 124.55594051 C1.28894009 147.70400204 1.14690991 170.8520134 1 194 C-0.2457782 193.85150604 -1.4915564 193.70301208 -2.77508545 193.55001831 C-3.47583569 193.46649046 -4.17658592 193.38296261 -4.89857101 193.29690361 C-10.0888038 192.56359363 -15.14375322 191.02579167 -20.20117188 189.67138672 C-22.25650083 189.12326634 -24.31545195 188.59061103 -26.375 188.05859375 C-27.6929554 187.70926413 -29.01067281 187.35903515 -30.328125 187.0078125 C-32.10558105 186.53819092 -32.10558105 186.53819092 -33.91894531 186.05908203 C-36.89192687 185.03714907 -38.79892684 184.23345661 -41 182 C-41.4699707 180.06152344 -41.4699707 180.06152344 -41.42578125 177.859375 C-41.41740234 177.034375 -41.40902344 176.209375 -41.40039062 175.359375 C-41.37138672 174.49828125 -41.34238281 173.6371875 -41.3125 172.75 C-41.29799805 171.52796875 -41.29799805 171.52796875 -41.28320312 170.28125 C-41.23446013 167.51773433 -41.11969625 164.76133846 -41 162 C-40.9700293 160.87650146 -40.94005859 159.75300293 -40.90917969 158.59545898 C-40.48009615 148.43306071 -38.32717164 139.32075031 -35.625 129.5625 C-35.14972545 127.80339935 -34.67607933 126.04385812 -34.20385742 124.28393555 C-33.11746562 120.2392183 -32.02430257 116.1963988 -30.92822266 112.15429688 C-27.62437039 99.93392221 -24.41739227 87.6875776 -21.19272232 75.44612789 C-19.76579769 70.02976684 -18.33520885 64.61438434 -16.90283203 59.19946289 C-16.31290059 56.96776171 -15.7230786 54.73603163 -15.13331604 52.50428581 C-14.74664107 51.04164344 -14.35969076 49.57907382 -13.97245789 48.11657906 C-11.84405485 40.07643419 -9.74497239 32.03026904 -7.70849609 23.96630859 C-7.34000129 22.51342754 -6.97144672 21.06056165 -6.60282898 19.60771179 C-5.90945542 16.8739343 -5.22527446 14.13807552 -4.54621887 11.40071106 C-4.23988022 10.19106186 -3.93354156 8.98141266 -3.61791992 7.73510742 C-3.352509 6.67160568 -3.08709808 5.60810394 -2.81364441 4.51237488 C-2 2 -2 2 0 0 Z " fill="#F8F8F8" transform="translate(53,33)"/>
<path d="M0 0 C0.33 0.99 0.66 1.98 1 3 C-2.16363636 7.58181818 -2.16363636 7.58181818 -5 9 C-5.99 10.485 -5.99 10.485 -7 12 C-8.07494116 12.99100369 -9.18216595 13.94767495 -10.3125 14.875 C-12.60303858 16.78378215 -14.75394597 18.71841958 -16.8125 20.875 C-19 23 -19 23 -21 23 C-21 39.17 -21 55.34 -21 72 C-21.33 72 -21.66 72 -22 72 C-22.25495077 65.0631422 -22.42923869 58.12750379 -22.54931641 51.18701172 C-22.59940148 48.82978172 -22.66749371 46.47285923 -22.75439453 44.11669922 C-23.49711388 23.45162544 -23.49711388 23.45162544 -19.88330078 18.30102539 C-17.38051694 15.78370925 -14.98125834 13.90750004 -12 12 C-10.52479126 10.74879552 -9.06311662 9.4811669 -7.625 8.1875 C-6.98820312 7.64351562 -6.35140625 7.09953125 -5.6953125 6.5390625 C-3.51592019 4.56053584 -1.72873089 2.37700497 0 0 Z " fill="#D1D1D1" transform="translate(130,170)"/>
<path d="M0 0 C1.11375 0.3403125 1.11375 0.3403125 2.25 0.6875 C2.25 1.0175 2.25 1.3475 2.25 1.6875 C0.96222656 1.99300781 0.96222656 1.99300781 -0.3515625 2.3046875 C-4.63186185 4.04632655 -7.00397641 6.4911144 -10.125 9.8125 C-10.67027344 10.37582031 -11.21554688 10.93914063 -11.77734375 11.51953125 C-13.1109075 12.89988671 -14.43177679 14.29248709 -15.75 15.6875 C-16.41 15.3575 -17.07 15.0275 -17.75 14.6875 C-4.96012976 -0.56365111 -4.96012976 -0.56365111 0 0 Z " fill="#CACACA" transform="translate(251.75,49.3125)"/>
<path d="M0 0 C0.66 0.99 1.32 1.98 2 3 C1.27683594 3.61488281 1.27683594 3.61488281 0.5390625 4.2421875 C-0.09257812 4.78101562 -0.72421875 5.31984375 -1.375 5.875 C-2.00148437 6.40867187 -2.62796875 6.94234375 -3.2734375 7.4921875 C-4.55836651 8.61432007 -5.79371975 9.79371975 -7 11 C-7.66 10.34 -8.32 9.68 -9 9 C-6.03 6.03 -3.06 3.06 0 0 Z " fill="#D8D8D8" transform="translate(206,92)"/>
</svg>
